<?xml version="1.0" encoding="utf-8"?>
<!-- Generator: Adobe Illustrator 24.1.3, SVG Export Plug-In . SVG Version: 6.00 Build 0)  -->
<svg version="1.1" id="Layer_1" xmlns="http://www.w3.org/2000/svg" xmlns:xlink="http://www.w3.org/1999/xlink" x="0px" y="0px"
	 viewBox="0 0 504 504" style="enable-background:new 0 0 504 504;" xml:space="preserve">
<style type="text/css">
	.st0{fill:#132529;}
	.st1{fill:#334F55;}
	.st2{fill:#E4E4DE;}
	.st3{fill:#FAF9F6;}
	.st4{fill:#E1E3E6;}
	.st5{fill:#365158;}
	.st6{fill:#1A282B;}
	.st7{fill:#CF174D;}
	.st8{fill:#0C172F;}
	.st9{fill:#F5DDE4;}
	.st10{fill:#EC1066;}
	.st11{fill:#DE4D59;}
	.st12{fill-rule:evenodd;clip-rule:evenodd;fill:#F2B499;}
	.st13{fill-rule:evenodd;clip-rule:evenodd;fill:#171F20;}
	.st14{fill-rule:evenodd;clip-rule:evenodd;fill:#FDFCFB;}
	.st15{fill-rule:evenodd;clip-rule:evenodd;fill:#1A282B;}
	.st16{fill-rule:evenodd;clip-rule:evenodd;fill:#DE4D59;}
	.st17{fill-rule:evenodd;clip-rule:evenodd;fill:#767471;}
	.st18{fill-rule:evenodd;clip-rule:evenodd;fill:#716E6B;}
	.st19{fill-rule:evenodd;clip-rule:evenodd;fill:#151C1C;}
	.st20{fill-rule:evenodd;clip-rule:evenodd;fill:#70393B;}
	.st21{fill-rule:evenodd;clip-rule:evenodd;fill:#402A2A;}
	.st22{fill-rule:evenodd;clip-rule:evenodd;fill:#365158;}
	.st23{fill-rule:evenodd;clip-rule:evenodd;fill:#EB916B;}
	.st24{fill-rule:evenodd;clip-rule:evenodd;fill:#928E8B;}
	.st25{fill-rule:evenodd;clip-rule:evenodd;fill:#873F43;}
	.st26{fill-rule:evenodd;clip-rule:evenodd;fill:#8A8884;}
	.st27{fill-rule:evenodd;clip-rule:evenodd;fill:#DFDFDA;}
	.st28{fill-rule:evenodd;clip-rule:evenodd;fill:#FFFFFE;}
</style>
<g id="track-analytics">
	<g id="icon1" transform="translate(70.000000, 111.000000)">
		<g id="Group">
			<path id="Fill-34" class="st0" d="M386.9,241.7H-23c-8.8,0-16-7.2-16-16V-34.5c0-8.8,7.2-16,16-16h409.9c8.8,0,16,7.2,16,16
				v260.2C402.9,234.5,395.7,241.7,386.9,241.7"/>
			<path id="Fill-35" class="st0" d="M401.7,245.7H-37.9c-10.8,0-19.6-8.8-19.6-19.6v-6h478.8v6
				C421.3,236.9,412.5,245.7,401.7,245.7"/>
			<polygon id="Fill-36" class="st1" points="-27.1,207.9 389.8,207.9 389.8,-38.9 -27.1,-38.9 			"/>
			<polyline id="Fill-37" class="st1" points="138.4,220.1 144.3,229.5 227.9,229.5 233.5,220.1 138.4,220.1 			"/>
			<path id="Fill-38" class="st2" d="M378.5,207.1H-15c-2,0-3.6-1.6-3.6-3.6V-27c0-2,1.6-3.6,3.6-3.6h393.4c2,0,3.6,1.6,3.6,3.6
				v230.5C382.1,205.5,380.5,207.1,378.5,207.1"/>
			<polygon id="Fill-39" class="st3" points="-18.6,207.1 382.1,207.1 382.1,-13.2 -18.6,-13.2 			"/>
			<path id="Fill-40" class="st0" d="M14.3-21.4c0,1.8-1.4,3.2-3.2,3.2c-1.8,0-3.2-1.4-3.2-3.2c0-1.8,1.4-3.2,3.2-3.2
				C12.9-24.6,14.3-23.2,14.3-21.4"/>
			<path id="Fill-42" class="st0" d="M4.2-21.4c0,1.8-1.4,3.2-3.2,3.2c-1.8,0-3.2-1.4-3.2-3.2c0-1.8,1.4-3.2,3.2-3.2
				C2.8-24.6,4.2-23.2,4.2-21.4"/>
			<path id="Fill-43" class="st1" d="M399.1,220.1c0,0.2-98.1,0.3-219.1,0.3c-121,0-219.1-0.1-219.1-0.3c0-0.2,98.1-0.3,219.1-0.3
				C301,219.8,399.1,219.9,399.1,220.1"/>
		</g>
		<g id="Group-6" transform="translate(197.000000, 40.099010)">
			<path id="Fill-19" class="st4" d="M-7.7-32.2V72.3c0,2.3,2.1,4.2,4.6,4.2h153.6c2.6,0,4.6-1.9,4.6-4.2V-35.8
				c0-2.4-2.2-4.3-4.8-4.2L-3.2-36.4C-5.7-36.3-7.7-34.5-7.7-32.2"/>
			<path id="Fill-20" class="st5" d="M133.8-17.3c-0.1,0.1-1.8-0.9-5.1-1.9c-3.3-1-8.5-2-14.7-1.1c-3.1,0.5-6.4,1.4-9.7,3
				c-3.3,1.6-6.4,4-9.6,6.6c-3.1,2.7-6.2,5.7-9.8,8.5c-3.6,2.8-7.7,5.4-12.6,6.5c-2.4,0.6-4.9,0.8-7.3,0.4c-2.4-0.3-4.7-1.1-6.8-2
				C53.9,1,50.3-1.6,46.8-3.7c-3.5-2.1-7.1-3.8-10.7-4.6C32.5-9.1,29-9.3,25.9-9c-6.3,0.5-11.1,2.7-14.1,4.4c-3,1.8-4.4,3.1-4.5,3
				c0,0,0.3-0.4,1-1C9-3.2,10.1-4,11.6-5c3-1.9,7.8-4.2,14.2-4.8c3.2-0.3,6.8-0.2,10.5,0.6c3.7,0.8,7.4,2.5,11,4.6
				c3.6,2.1,7.2,4.6,11.3,6.4c4,1.9,8.8,2.7,13.4,1.5c4.6-1.1,8.6-3.6,12.2-6.3c3.5-2.7,6.7-5.7,9.8-8.4c3.2-2.7,6.4-5.1,9.8-6.7
				c3.4-1.6,6.8-2.5,10-3c6.4-0.8,11.6,0.3,15,1.4c1.7,0.6,2.9,1.1,3.8,1.6C133.4-17.6,133.8-17.3,133.8-17.3"/>
			<polygon id="Fill-21" class="st5" points="23.6,47.6 37.4,47.6 37.4,10.1 23.6,10.1 			"/>
			<polygon id="Fill-22" class="st5" points="82.5,47.6 96.3,47.6 96.3,10.1 82.5,10.1 			"/>
			<polygon id="Fill-23" class="st5" points="102.5,46.4 116.3,46.4 116.3,-12.5 102.5,-12.5 			"/>
			<polygon id="Fill-23-Copy" class="st5" points="121.3,46.4 135.1,46.4 135.1,-12.5 121.3,-12.5 			"/>
			<polygon id="Fill-24" class="st5" points="8.6,48.9 22.3,48.9 22.3,36.4 8.6,36.4 			"/>
			<polygon id="Fill-25" class="st5" points="43.6,46.4 57.4,46.4 57.4,26.4 43.6,26.4 			"/>
			<polygon id="Fill-26" class="st5" points="63.7,46.4 77.5,46.4 77.5,22.6 63.7,22.6 			"/>
			<path id="Fill-27" class="st6" d="M38.6,52c0,0.2-3.4,0.4-7.5,0.4c-4.2,0-7.5-0.2-7.5-0.4c0-0.2,3.4-0.4,7.5-0.4
				C35.3,51.6,38.6,51.8,38.6,52"/>
			<path id="Fill-29" class="st6" d="M117.5,52c0,0.2-3.9,0.4-8.8,0.4c-4.8,0-8.8-0.2-8.8-0.4c0-0.2,3.9-0.4,8.8-0.4
				C113.6,51.6,117.5,51.8,117.5,52"/>
			<path id="Fill-29_1_" class="st6" d="M138.8,52c0,0.2-3.9,0.4-8.8,0.4c-4.8,0-8.8-0.2-8.8-0.4c0-0.2,3.9-0.4,8.8-0.4
				C134.9,51.6,138.8,51.8,138.8,52"/>
			<path id="Fill-30" class="st6" d="M97.5,52c0,0.2-3.9,0.4-8.8,0.4c-4.8,0-8.8-0.2-8.8-0.4c0-0.2,3.9-0.4,8.8-0.4
				C93.6,51.6,97.5,51.8,97.5,52"/>
			<path id="Fill-31" class="st6" d="M77.5,52c0,0.2-3.4,0.4-7.5,0.4c-4.2,0-7.5-0.2-7.5-0.4c0-0.2,3.4-0.4,7.5-0.4
				C74.1,51.6,77.5,51.8,77.5,52"/>
			<path id="Fill-32" class="st6" d="M57.4,52c0,0.2-3.4,0.4-7.5,0.4c-4.2,0-7.5-0.2-7.5-0.4c0-0.2,3.4-0.4,7.5-0.4
				C54.1,51.6,57.4,51.8,57.4,52"/>
		</g>
	</g>
	<g id="Group-5" transform="translate(212.000000, 156.000000)">
		<path id="Fill-15" class="st6" d="M5.8-38.2C-5.4-40.7-17.8-34.6-20.9-23C-24-11.8-16.6,1.2-5.4,4.2c10.9,3,23.4-3.8,27-14.5
			c4-11.9-3.6-24.7-15.1-28.5c-1.3-0.4-1.9,1.6-0.6,2.1c9.8,3.6,16.8,14.2,13.9,24.8C17-1.8,5.2,4.9-4.9,2.2
			c-9.7-2.6-16-13-14.7-22.7c1.5-11.9,14.1-19,25.3-17.1C6.1-37.5,6.2-38.1,5.8-38.2"/>
		<path id="Fill-16" class="st7" d="M-5.4,3.8C6.1,7.4,19.4,0.8,22.8-11.1c3.5-12.1-4.3-25.1-16.1-28.7c-2.7-0.8-3.7,3.2-1.1,4.2
			c10,3.9,16.6,14.7,12.6,25.3C14.7-0.9,4.4,3.6-5.2,2.5C-5.9,2.5-6,3.6-5.4,3.8"/>
	</g>
	<path id="_x20B9_" class="st8" d="M219,149.9l-7.1-8.5h1.1c3.5,0,6.1-2.3,6.3-5.3h2.4v-2.3h-2.6c-0.3-0.9-0.8-1.7-1.4-2.3h4.1v-3
		h-15v3.5h5.2c1.8,0,2.9,0.6,3.2,1.8h-8.4v2.3h8.4c-0.4,1.2-1.4,1.8-3.2,1.8h-5.2v3.5l7.3,8.5H219z"/>
	<g id="Group-6_1_" transform="translate(214.000000, 251.000000)">
		<g id="Group-4" transform="translate(0.000000, 6.000000)">
			<path id="Fill-33" class="st6" d="M136.4-14.1c0,0,0.1,0,0.3,0c0.2,0,0.5,0.1,0.9,0.2c0.4,0.2,0.8,0.5,1.1,0.9
				c0.3,0.5,0.3,1.1,0.3,1.8c0,2.8,0,6.9,0.1,12.2c0,5.3,0,11.8,0.1,19.4c0,3.8,0,7.8,0,12.1c0,1.1,0,2.2,0,3.3c0,0.6,0,1.1,0,1.7
				c0,0.5,0,1.2-0.4,1.8c-0.3,0.5-0.9,1-1.6,1.1c-0.7,0.2-1.4,0.1-2,0.1c-1.3,0-2.7,0-4,0l0.3-0.2c0,3.8,0,8,0,12.2v0.7l-0.5-0.5
				c-3.9-3.8-8-8-12.3-12.2l0.2,0.1c-36.3,0-80,0-127,0.1c-2,0-4,0-5.9,0l-2.9,0c-0.5,0-0.9,0-1.5,0c-0.6,0-1.1-0.2-1.5-0.6
				c-0.4-0.3-0.8-0.7-0.9-1.2c-0.1-0.2-0.1-0.5-0.1-0.7v-0.7v-2.6c0-1.7,0-3.4,0-5.1c0-6.8,0-13.5,0-20c0-6.6,0-13,0-19.3l0-2.4
				c0-0.9,0.7-1.8,1.6-2.2c0.4-0.2,1-0.3,1.5-0.3l1.3,0l2.6,0c3.5,0,7,0,10.4,0c27.4,0,52.2,0.1,72.9,0.1c20.7,0,37.5,0.1,49.2,0.1
				c5.8,0,10.3,0.1,13.4,0.1c1.5,0,2.7,0,3.5,0C136-14.1,136.4-14.1,136.4-14.1s-0.4,0-1.2,0c-0.8,0-2,0-3.5,0
				c-3.1,0-7.6,0-13.4,0.1c-11.6,0-28.4,0.1-49.2,0.1c-20.8,0-45.5,0-72.9,0.1c-3.4,0-6.9,0-10.4,0l-2.6,0H-18
				c-0.4,0-0.8,0.1-1.1,0.2c-0.7,0.3-1.2,0.9-1.2,1.6l0,2.4c0,6.3,0,12.8,0,19.3c0,6.6,0,13.3,0,20c0,1.7,0,3.4,0,5.1v2.6
				c0,0.5,0,0.8,0.1,1.2c0.1,0.3,0.4,0.7,0.7,0.9c0.3,0.2,0.7,0.4,1.1,0.4c0.4,0,1,0,1.4,0l2.9,0c2,0,3.9,0,5.9,0
				c47,0,90.7,0,127,0.1h0.1l0.1,0.1c4.3,4.3,8.4,8.4,12.3,12.3l-0.5,0.2c0-4.3,0-8.4,0-12.2V40l0.3,0c1.4,0,2.7,0,4,0
				c0.7,0,1.3,0.1,1.9-0.1c0.6-0.1,1-0.5,1.3-0.9c0.3-0.4,0.3-0.9,0.3-1.5c0-0.6,0-1.1,0-1.7c0-1.1,0-2.2,0-3.3c0-4.3,0-8.3,0-12.1
				c0-7.5,0-14,0.1-19.4c0-5.3,0.1-9.4,0.1-12.2c0-0.7,0.1-1.3-0.3-1.8c-0.3-0.5-0.7-0.8-1-0.9C136.9-14.1,136.4-14,136.4-14.1"/>
		</g>
		<circle id="Oval" class="st9" cx="138.6" cy="-4" r="11.9"/>
		<path id="Combined-Shape" class="st9" d="M54.1,4.1c0.7,0,1.3,0.6,1.3,1.3l0,3.8C49,9.4,44,14.1,44,19.8s5,10.3,11.3,10.6l0,3.8
			c0,0.7-0.6,1.3-1.3,1.3H-9.8c-0.7,0-1.3-0.6-1.3-1.3v-3.9c5.7-0.8,10-5.2,10-10.5s-4.3-9.7-10-10.5V5.4c0-0.7,0.6-1.3,1.3-1.3
			H54.1z"/>
		<g id="notification" transform="translate(124.000000, 4.000000)">
			<path id="Path" class="st10" d="M20.2-4.8l-0.9-1.4c-0.4-0.7-0.6-1.4-0.6-2.2v-1.3c0-1.6-1.1-2.9-2.5-3.4v-0.9c0-0.6-0.4-1-1-1
				s-1,0.4-1,1v0.9c-1.4,0.4-2.5,1.8-2.5,3.4v1.3c0,0.8-0.2,1.5-0.6,2.2l-0.9,1.4c0,0.1,0,0.2,0,0.3c0,0.1,0.1,0.1,0.2,0.1H20
				c0.1,0,0.2,0,0.2-0.1C20.3-4.6,20.3-4.7,20.2-4.8z"/>
			<path id="Path_1_" class="st10" d="M13.7-3.9c0.3,0.6,0.9,1,1.6,1s1.3-0.4,1.6-1H13.7L13.7-3.9z"/>
		</g>
		<g id="Group-5_1_" transform="translate(70.000000, 22.000000)">
			<path id="Fill-152" class="st11" d="M30.4-9.7c0,0.2-7.6,0.3-16.9,0.3C4.1-9.4-3.4-9.6-3.4-9.7c0-0.2,7.6-0.3,16.9-0.3
				C22.8-10.1,30.4-9.9,30.4-9.7"/>
			<path id="Fill-153" class="st6" d="M56.7-3.5c0,0.2-13.5,0.3-30.1,0.3C10-3.2-3.4-3.3-3.4-3.5c0-0.2,13.5-0.3,30.1-0.3
				C43.2-3.8,56.7-3.7,56.7-3.5"/>
			<path id="Fill-154" class="st6" d="M55.5,1.5c0,0.2-13.2,0.3-29.4,0.3C9.8,1.9-3.4,1.7-3.4,1.5c0-0.2,13.2-0.3,29.4-0.3
				C42.3,1.2,55.5,1.4,55.5,1.5"/>
			<path id="Fill-155" class="st6" d="M31.7,6.5c0,0.2-7.9,0.3-17.5,0.3C4.4,6.9-3.4,6.7-3.4,6.5c0-0.2,7.9-0.3,17.5-0.3
				C23.8,6.2,31.7,6.4,31.7,6.5"/>
		</g>
	</g>
	<g id="Group_1_" transform="translate(111.461697, 151.589125)">
		<path id="Fill-622" class="st12" d="M67.7,65.9c-1.1-1.8-2.6-3.4-3.8-5"/>
		<path id="Fill-633" class="st13" d="M57,299.7C57,299.7,57,299.7,57,299.7c-0.1-0.1,0-0.2,0.1-0.3C57,299.5,57,299.6,57,299.7"/>
		<path id="Fill-676" class="st14" d="M94,55.3c0,0.2-9,0.3-20,0.3c-11.1,0-20-0.1-20-0.3c0-0.2,9-0.3,20-0.3C85,55,94,55.1,94,55.3
			"/>
		<path id="Fill-678" class="st14" d="M71.4,70.3c0,0.2-4.8,0.3-10.6,0.3c-5.9,0-10.6-0.1-10.6-0.3c0-0.2,4.8-0.3,10.6-0.3
			C66.6,70,71.4,70.1,71.4,70.3"/>
		<path id="Fill-679" class="st14" d="M76.4,84.1c0,0.2-3.6,0.3-8.1,0.3c-4.5,0-8.1-0.1-8.1-0.3c0-0.2,3.6-0.3,8.1-0.3
			C72.8,83.8,76.4,83.9,76.4,84.1"/>
		<path id="Fill-682" class="st14" d="M64.5,62.2c-0.2,0-0.3-4.2-0.3-9.4c0-5.2,0.1-9.4,0.3-9.4s0.3,4.2,0.3,9.4
			C64.8,58,64.7,62.2,64.5,62.2"/>
		<path id="Fill-683" class="st14" d="M57,79.7c-0.2,0-0.3-6.2-0.3-13.8c0-7.6,0.1-13.8,0.3-13.8c0.2,0,0.3,6.2,0.3,13.8
			C57.3,73.6,57.2,79.7,57,79.7"/>
		<path id="Fill-684" class="st14" d="M69.5,93.5c-0.2,0-0.3-5.3-0.3-11.9c0-6.6,0.1-11.9,0.3-11.9s0.3,5.3,0.3,11.9
			C69.9,88.2,69.7,93.5,69.5,93.5"/>
		<path id="Fill-687" class="st15" d="M71.4,69.7c-0.1,0.1-1.9-2.1-3.9-4.9c-2.1-2.8-3.7-5.1-3.6-5.1c0.1-0.1,1.9,2.1,3.9,4.9
			C69.9,67.3,71.5,69.6,71.4,69.7"/>
		<g id="Group-711" transform="translate(1.538303, 264.410875)">
			<path id="Fill-710" class="st16" d="M-27.1,26.6l-1.8,7.6c0,0-12.4,16.1-16.2,15.4c-2.5-0.5,0.6-4.7,5.3-17l1-5.1L-27.1,26.6"/>
		</g>
		<path id="Fill-712" class="st15" d="M-45.1,311.7c0,0,0.1,0.4,0.7,0.7c0.5,0.3,1.5,0.3,2.5-0.3c1.7-1.4,4-3.6,6.4-6.1
			c2.4-2.5,4.4-4.9,5.8-6.7c0.6-0.8,1.2-1.5,1.6-2.1c0.2-0.2,0.3-0.4,0.4-0.6c0.1-0.1,0.2-0.2,0.2-0.2c0,0,0,0.1-0.1,0.2
			c-0.1,0.2-0.3,0.4-0.4,0.6c-0.4,0.5-0.9,1.3-1.6,2.2c-1.4,1.8-3.4,4.2-5.7,6.7c-2.4,2.5-4.6,4.7-6.5,6c-0.5,0.3-1,0.5-1.4,0.5
			c-0.5,0-0.9-0.1-1.1-0.2c-0.3-0.2-0.5-0.4-0.5-0.5C-45.1,311.8-45.1,311.7-45.1,311.7"/>
		<path id="Fill-713" class="st15" d="M-42.6,306.6c0,0,0.4-0.2,1-0.1c0.6,0,1.4,0.3,2.2,0.8c0.8,0.5,1.4,1.3,1.6,1.9
			c0.3,0.6,0.3,1,0.3,1c0,0-0.1-0.4-0.4-1c-0.3-0.6-0.8-1.2-1.6-1.7c-0.8-0.5-1.5-0.8-2.1-0.9c-0.3-0.1-0.6,0-0.8,0
			C-42.5,306.6-42.6,306.6-42.6,306.6"/>
		<path id="Fill-714" class="st15" d="M-30.8,302.7c0,0-0.1-0.1-0.2-0.4c-0.1-0.2-0.2-0.6-0.3-1c-0.2-0.9-0.1-2.2,0.6-3.4
			c0.7-1.2,1.8-2,2.7-2.4c0.5-0.2,0.8-0.3,1.1-0.3c0.3,0,0.4,0,0.4,0c0,0-0.6,0.1-1.5,0.5c-0.9,0.4-1.9,1.2-2.6,2.4
			c-0.7,1.2-0.8,2.4-0.7,3.3C-30.9,302.2-30.8,302.7-30.8,302.7"/>
		<path id="Fill-715" class="st15" d="M-26.3,292.7c0.1,0-0.3,1.1-0.5,2.5c-0.3,1.4-0.6,2.5-0.7,2.5c-0.1,0,0.2-1.1,0.5-2.5
			C-26.8,293.7-26.4,292.6-26.3,292.7"/>
		<path id="Fill-716" class="st15" d="M-38.8,297.9c0-0.1,0.6-0.3,1.3,0c0.7,0.3,1.2,0.9,1.2,0.9c0,0.1-0.5-0.4-1.2-0.6
			C-38.2,297.9-38.8,298-38.8,297.9"/>
		<path id="Fill-717" class="st15" d="M-38.8,299.2c0-0.1,0.6-0.3,1.3-0.1c0.7,0.2,1.2,0.8,1.2,0.9c0,0.1-0.5-0.4-1.2-0.6
			C-38.2,299.2-38.8,299.3-38.8,299.2"/>
		<path id="Fill-718" class="st15" d="M-40.1,300.6c0-0.1,0.6-0.5,1.4-0.2c0.8,0.2,1.2,1,1.1,1c0,0.1-0.5-0.5-1.2-0.7
			C-39.5,300.4-40.1,300.7-40.1,300.6"/>
		<path id="Fill-719" class="st15" d="M-38.8,297.7c0,0,0.6-0.2,1.6-0.6c0.5-0.2,1.1-0.5,1.7-0.9c0.3-0.2,0.6-0.4,0.9-0.6
			c0.3-0.2,0.6-0.6,0.6-0.9c0-0.4-0.4-0.5-0.7-0.5c-0.3,0.1-0.6,0.4-0.9,0.6c-0.5,0.5-0.9,1-1.3,1.4c-0.7,0.9-1.1,1.4-1.1,1.4
			c0,0,0.1-0.2,0.2-0.4c0.2-0.3,0.4-0.6,0.8-1.1c0.3-0.4,0.8-1,1.3-1.5c0.3-0.3,0.5-0.6,1-0.7c0.4-0.1,1,0.1,1,0.7
			c0,0.6-0.4,0.9-0.7,1.1c-0.3,0.2-0.6,0.5-0.9,0.6c-0.6,0.4-1.2,0.6-1.7,0.8c-0.5,0.2-0.9,0.3-1.2,0.4
			C-38.7,297.7-38.8,297.7-38.8,297.7"/>
		<path id="Fill-720" class="st15" d="M-37.6,297.7c0,0-0.1-0.5-0.2-1.3c-0.1-0.4-0.2-0.9-0.5-1.3c-0.1-0.2-0.3-0.5-0.5-0.7
			c-0.2-0.2-0.5-0.4-0.8-0.2c-0.2,0.1-0.3,0.4-0.3,0.7c0,0.3,0.1,0.5,0.3,0.8c0.2,0.5,0.6,0.9,0.9,1.1
			C-38,297.4-37.6,297.7-37.6,297.7c0,0-0.1,0-0.4-0.2c-0.2-0.1-0.5-0.3-0.9-0.6c-0.3-0.3-0.7-0.7-1-1.2c-0.1-0.2-0.2-0.5-0.3-0.8
			c0-0.3,0-0.7,0.4-0.9c0.4-0.2,0.9,0.1,1.1,0.3c0.2,0.2,0.4,0.5,0.5,0.7c0.3,0.5,0.4,1,0.4,1.4c0.1,0.4,0.1,0.7,0.1,0.9
			C-37.6,297.6-37.6,297.7-37.6,297.7"/>
		<path id="Fill-721" class="st17" d="M-43.5,314c0.1,0,0.2-0.1,0.4-0.1C-43.2,313.9-43.3,313.9-43.5,314 M-38.3,310.3
			c0.1-0.1,0.3-0.3,0.4-0.4c0,0,0,0,0,0C-38.1,310-38.2,310.1-38.3,310.3 M-37.9,309.8C-37.9,309.8-37.9,309.8-37.9,309.8
			c0.2-0.2,0.4-0.4,0.6-0.6c0,0,0,0,0,0C-37.5,309.4-37.7,309.6-37.9,309.8 M-43.8,308.7c0.4-1.1,0.8-2,0.9-2.1
			C-43.3,307.3-43.6,308-43.8,308.7 M-30.3,301.2c0.5-0.7,1-1.2,1.3-1.6h0C-29.4,300.1-29.8,300.6-30.3,301.2 M-28.7,299.2
			L-28.7,299.2c0.2-0.3,0.3-0.4,0.3-0.4l0.8-3.6c0,0,0,0,0,0l-0.9,3.6C-28.5,298.9-28.6,299.1-28.7,299.2L-28.7,299.2"/>
		<path id="Fill-722" class="st18" d="M-28.2,299.6C-28.2,299.6-28.2,299.6-28.2,299.6L-28.2,299.6L-28.2,299.6"/>
		<path id="Fill-723" class="st19" d="M-28.4,299.8L-28.4,299.8c0.2-0.2,0.3-0.4,0.4-0.5h0C-28.1,299.5-28.2,299.6-28.4,299.8"/>
		<path id="Fill-724" class="st20" d="M-43.9,314c-0.5,0-1.1-0.2-1.1-1.1c0-0.7,0.7-2.7,1.3-4.3c0.3-0.6,0.6-1.4,0.9-2.1
			c0,0,0,0,0,0c0.1,0,0.1,0,0.2,0c0.2,0,0.4,0,0.6,0c0.6,0.1,1.4,0.3,2.2,0.8c0.6,0.4,1.1,0.8,1.4,1.3c0,0.1,0.1,0.1,0.1,0.2
			c-1.3,1.2-2.4,2.3-3.4,3.1c-0.5,0.4-1,0.5-1.5,0.5c-0.3,0-0.6-0.1-0.8-0.2c-0.5-0.3-0.6-0.6-0.6-0.6c0,0,0,0,0,0
			c0,0,0,0.1,0.1,0.2c0.1,0.1,0.2,0.3,0.5,0.5c0.2,0.1,0.6,0.2,1,0.2c0,0,0.1,0,0.1,0c0.4,0,0.9-0.2,1.4-0.5c1-0.8,2.2-1.8,3.4-3.1
			c0,0,0,0,0,0c0.2,0.3,0.3,0.6,0.3,0.8c-0.1,0.1-0.3,0.3-0.4,0.4c-2.4,2.2-4.5,3.5-4.7,3.6c0,0,0,0,0,0c-0.1,0.1-0.3,0.1-0.4,0.1
			C-43.6,313.9-43.7,314-43.9,314 M-37.8,309.7c0-0.2-0.1-0.5-0.3-0.8c0,0,0-0.1,0-0.1c0.8-0.8,1.7-1.7,2.5-2.6
			c1.4-1.5,2.7-3,3.8-4.3c0,0.2,0.1,0.3,0.1,0.4c0.1,0.2,0.1,0.4,0.1,0.4c0,0,0,0,0,0c0,0,0,0,0,0c-1.7,2-3.7,4.4-5.7,6.4
			C-37.4,309.3-37.6,309.5-37.8,309.7 M-39.7,307.2C-39.7,307.2-39.7,307.2-39.7,307.2c-0.8-0.5-1.7-0.8-2.3-0.8c-0.1,0-0.2,0-0.3,0
			c0,0,0,0-0.1,0c0.1,0,0.3,0,0.4,0C-41,306.3-40.3,306.7-39.7,307.2 M-36.4,306.8l2.7-3c-0.7,0.8-1.4,1.5-2.1,2.3
			C-35.9,306.3-36.1,306.5-36.4,306.8 M-31.5,302.7c0,0-0.1-0.4-0.2-0.9c0.6-0.7,1.1-1.4,1.5-2c0.6-0.9,1.2-1.6,1.5-2.1
			c0.1-0.2,0.3-0.4,0.4-0.6c0.1-0.1,0.1-0.2,0.1-0.2c0,0,0,0,0,0c0,0-0.1,0.1-0.2,0.2c-0.1,0.2-0.3,0.4-0.4,0.6
			c-0.4,0.6-1,1.3-1.5,2c-0.4,0.5-0.9,1.2-1.5,1.8c0-0.1,0-0.2,0-0.2c0-0.3-0.1-0.7,0-1.2c0-0.3,0.1-0.6,0.2-1
			c0.1-0.4,0.2-0.8,0.4-1.1c0.6-1.2,1.6-2,2.3-2.4c0.3-0.1,0.5-0.2,0.7-0.3c-0.2,1.1-0.4,1.9-0.3,2c0,0,0,0,0,0c0.1,0,0.4-0.9,0.6-2
			c0.2-0.1,0.3-0.1,0.4-0.1l-0.8,3.6c0,0-0.1,0.1-0.3,0.4c0,0,0,0,0,0c-0.1,0.1-0.2,0.2-0.3,0.4c-0.3,0.4-0.8,1-1.3,1.6
			C-30.7,301.7-31.1,302.2-31.5,302.7"/>
		<path id="Fill-725" class="st19" d="M-43.4,312.7c-0.4,0-0.8-0.1-1-0.3c-0.3-0.2-0.5-0.4-0.5-0.5c-0.1-0.1-0.1-0.2-0.1-0.2
			c0,0,0,0,0,0c0,0,0.1,0.4,0.7,0.7c0.2,0.1,0.5,0.2,0.9,0.2c0.5,0,1.1-0.2,1.6-0.5c1-0.8,2.3-2,3.6-3.3c0,0.1,0.1,0.1,0.1,0.1l0,0
			c0,0,0,0.1,0.1,0.1c-1.3,1.3-2.6,2.4-3.6,3.2c-0.5,0.3-1,0.5-1.4,0.5C-43.3,312.7-43.4,312.7-43.4,312.7 M-38.1,308.9
			c0,0,0-0.1-0.1-0.1l1.9-2.1c0.2-0.2,0.4-0.4,0.7-0.7c0.8-0.8,1.5-1.7,2.3-2.5l1.9-2c0,0,0,0,0-0.1c0,0.1,0,0.2,0.1,0.2
			c-1.1,1.4-2.5,2.9-4,4.5C-36.3,307.1-37.2,308-38.1,308.9 M-31.3,301.5c0-0.1,0-0.2,0-0.3c0.6-0.7,1.1-1.3,1.5-1.9
			c0.6-0.8,1.2-1.5,1.6-2.1c0.2-0.2,0.3-0.4,0.4-0.6c0.1-0.1,0.2-0.2,0.2-0.2c0,0,0,0,0,0c0,0,0,0.1-0.1,0.2
			c-0.1,0.2-0.3,0.4-0.4,0.6c-0.4,0.5-0.9,1.3-1.6,2.2C-30.1,300-30.7,300.7-31.3,301.5"/>
		<path id="Fill-726" class="st19" d="M-37.6,310.2C-37.6,310.2-37.6,310.2-37.6,310.2c-0.1-0.2-0.2-0.5-0.3-0.9c0,0,0,0,0-0.1
			c0,0,0-0.1-0.1-0.1l0.1-0.1c0,0,0,0.1,0.1,0.1c0,0,0,0.1,0,0.1C-37.7,309.7-37.6,310-37.6,310.2
			C-37.6,310.1-37.6,310.1-37.6,310.2C-37.6,310.2-37.6,310.2-37.6,310.2 M-38.2,308.9c-0.3-0.5-0.8-1-1.4-1.4
			c-0.8-0.5-1.6-0.8-2.2-0.9c-0.2,0-0.4,0-0.6,0c-0.1,0-0.2,0-0.2,0c0,0,0,0,0,0c0,0,0,0,0,0c0.2-0.1,0.3-0.1,0.5-0.1c0,0,0,0,0.1,0
			c0.1,0,0.2,0,0.3,0c0.6,0,1.5,0.3,2.3,0.9c0,0,0,0,0,0C-38.8,307.9-38.4,308.6-38.2,308.9"/>
		<path id="Fill-727" class="st19" d="M-30.9,302.7c0,0-0.1-0.1-0.2-0.4c0-0.1-0.1-0.3-0.1-0.4c0-0.1,0-0.1-0.1-0.2
			c0-0.2,0-0.8,0.1-1.6c0,0.4,0,0.8,0,1.2c0,0.1,0,0.2,0,0.2c0,0.1,0,0.2,0,0.3C-31,302.3-30.9,302.7-30.9,302.7
			C-30.9,302.7-30.9,302.7-30.9,302.7C-30.9,302.7-30.9,302.7-30.9,302.7C-30.9,302.7-30.9,302.7-30.9,302.7 M-31,299.2
			c0.1-0.4,0.2-0.8,0.4-1.2c0.6-1.6,2.6-2.3,3.6-2.6c0,0,0,0,0,0c-0.2,0.1-0.5,0.2-0.8,0.3c-0.9,0.4-2,1.2-2.7,2.4
			C-30.7,298.4-30.9,298.8-31,299.2 M-26.7,295.3C-26.7,295.3-26.7,295.3-26.7,295.3c0.3-0.1,0.4-0.1,0.4-0.1l0,0c0,0,0,0,0,0
			C-26.3,295.2-26.5,295.2-26.7,295.3"/>
		<path id="Fill-728" class="st19" d="M-28.6,297.7C-28.6,297.7-28.6,297.7-28.6,297.7c-0.1,0,0.2-1,0.5-2.4c0,0,0,0,0,0
			c0.1,0,0.2-0.1,0.3-0.1c0,0,0,0,0,0C-28.1,296.6-28.5,297.7-28.6,297.7"/>
		<path id="Fill-729" class="st16" d="M33.3,294.6l0.1-10.5L14,283.9l-0.2,15.3l1.2,0.1c5.3,0.4,27.2,1.5,30.7,0.4
			C49.7,298.6,33.3,294.6,33.3,294.6"/>
		<path id="Fill-730" class="st20" d="M15,298.9l0.1-5c0.1,0,0.3,0,0.4,0c1.3,0,2.6,0.5,3.7,1.4c1.1,0.9,1.9,2.2,2.1,3.6l-6.3-0.1
			L15,298.9"/>
		<path id="Fill-731" class="st17" d="M32.6,300.1c-4.2-0.1-8.7-0.3-12.7-0.6c0.5,0,1,0,1.5,0C24.7,299.7,28.7,300,32.6,300.1"/>
		<path id="Fill-732" class="st19" d="M22.6,299.9c-0.5,0-1,0-1.5,0c-2.3-0.2-4.3-0.4-6-0.6c0,0,0,0,0,0l1.2,0.1
			C17.5,299.5,19.8,299.7,22.6,299.9"/>
		<path id="Fill-733" class="st17" d="M45.1,299.8c0.1,0,0.2,0,0.2-0.1c0.1,0,0.2-0.1,0.2-0.1c0.1,0,0.1,0,0.2,0
			C45.6,299.7,45.4,299.8,45.1,299.8 M46.2,299.1c0,0,0-0.1-0.1-0.1C46.2,299,46.2,299,46.2,299.1C46.2,299.1,46.2,299.1,46.2,299.1
			"/>
		<path id="Fill-734" class="st19" d="M45.6,299.9c-0.1,0-0.1,0-0.2,0c0.5-0.2,0.6-0.4,0.6-0.6c0,0,0,0,0,0c0.1,0.2,0.1,0.3,0,0.4
			C45.9,299.8,45.8,299.8,45.6,299.9"/>
		<path id="Fill-735" class="st17" d="M42.6,297.4c-0.4-0.2-0.8-0.4-1.3-0.6c0,0,0,0,0,0C41.4,296.7,41.9,297,42.6,297.4"/>
		<path id="Fill-736" class="st20" d="M36.5,300.2c-1.3,0-2.7,0-4.1,0c-3.8-0.1-7.7-0.3-11-0.5c-2.8-0.2-5-0.3-6.3-0.4l-1.2-0.1l0,0
			l0-0.3v0l7,0.2c0-0.1,0-0.2,0-0.3l18.8,0.5c0,0,0.6-2.8,1.7-2.9c0.5,0.2,1,0.4,1.4,0.5c1.3,0.5,3.1,1.4,3.6,2.1c0,0,0,0.1,0,0.1
			c0,0.2-0.1,0.4-0.4,0.5c-0.1,0-0.1,0-0.2,0.1c-0.1,0-0.1,0-0.2,0.1C44.1,300.1,40.7,300.2,36.5,300.2"/>
		<path id="Fill-737" class="st21" d="M21.3,298.6l-6.3-0.3v0l0-0.2l6.2,0.2C21.3,298.4,21.3,298.5,21.3,298.6"/>
		<path id="Fill-738" class="st15" d="M13.8,299.1c0,0,0.1,0,0.3,0.1c0.3,0,0.6,0.1,0.9,0.1c0.9,0.1,2.1,0.2,3.5,0.3
			c2.9,0.2,7,0.4,11.5,0.5c4.5,0.1,8.6,0,11.5-0.1c1.4-0.1,2.5-0.1,3.5-0.1c0.4,0,0.7,0,0.9-0.1c0.2,0,0.3,0,0.3,0c0,0-0.1,0-0.3,0
			c-0.3,0-0.6,0-1,0c-0.9,0-2.1,0-3.5,0c-2.9,0-7,0-11.5,0c-4.5-0.1-8.6-0.2-11.5-0.4c-1.4-0.1-2.5-0.1-3.5-0.2c-0.4,0-0.7,0-0.9,0
			C13.9,299.1,13.8,299.1,13.8,299.1"/>
		<path id="Fill-739" class="st15" d="M40.1,298.9c0.1,0,0.2-0.7,0.9-1.4c0.7-0.7,1.6-1.1,1.6-1.1c0,0-1.1,0.2-1.8,1
			C40,298.2,40.1,298.9,40.1,298.9"/>
		<path id="Fill-740" class="st15" d="M33.8,296.4c0.1,0,0.4-0.2,0.7-0.6c0.3-0.3,0.6-0.6,0.5-0.7c-0.1,0-0.4,0.2-0.7,0.6
			C34,296.1,33.8,296.4,33.8,296.4"/>
		<path id="Fill-741" class="st15" d="M32.6,296.4c0,0.1,0.4-0.2,0.7-0.5c0.3-0.3,0.6-0.7,0.5-0.7c0-0.1-0.4,0.2-0.7,0.5
			C32.8,296,32.5,296.4,32.6,296.4"/>
		<path id="Fill-742" class="st15" d="M31.3,294.5c0,0.1,0.6,0.2,1.2,0.2c0.7,0,1.3,0,1.3-0.1c0-0.1-0.6-0.2-1.2-0.2
			C31.9,294.4,31.3,294.4,31.3,294.5"/>
		<path id="Fill-743" class="st15" d="M31.3,293.1c0,0.1,0.5,0.4,1.2,0.5c0.7,0.1,1.3-0.1,1.3-0.2c0-0.1-0.6,0-1.3-0.1
			C31.9,293.1,31.4,293,31.3,293.1"/>
		<path id="Fill-744" class="st15" d="M35.1,294.8c0,0,0.5,0.1,1.3,0c0.4-0.1,0.9-0.2,1.4-0.3c0.2-0.1,0.5-0.2,0.8-0.4
			c0.1-0.1,0.3-0.2,0.3-0.5c0.1-0.2,0-0.5-0.2-0.6c-1.2-0.8-2.4,0-2.9,0.8c-0.3,0.4-0.4,0.8-0.4,1c-0.1,0.3-0.1,0.4,0,0.4
			c0,0,0.1-0.6,0.6-1.3c0.2-0.3,0.6-0.7,1.1-0.8c0.5-0.2,1.1-0.2,1.5,0.1c0.2,0.2,0.1,0.5-0.1,0.6c-0.2,0.2-0.5,0.3-0.7,0.4
			c-0.5,0.2-0.9,0.3-1.3,0.4C35.6,294.7,35.1,294.7,35.1,294.8"/>
		<path id="Fill-745" class="st15" d="M35,295.2c0,0,0.1-0.3,0.1-0.9c0-0.3-0.1-0.6-0.2-0.9c-0.2-0.3-0.4-0.7-0.7-0.7
			c-0.2,0-0.3,0.4-0.3,0.6c0,0.2,0.1,0.4,0.1,0.6c0.1,0.3,0.3,0.6,0.4,0.8C34.7,295,34.9,295.2,35,295.2c-0.1-0.1-0.2-0.3-0.5-0.7
			c-0.1-0.2-0.2-0.5-0.4-0.8c-0.1-0.3-0.2-0.8,0-0.8c0.2,0,0.4,0.3,0.6,0.6c0.1,0.3,0.2,0.6,0.2,0.8C35,294.8,34.9,295.2,35,295.2"
			/>
		<path id="Fill-746" class="st15" d="M15,294c0,0,0.5,0,1.3,0.1c0.8,0.1,1.9,0.4,2.9,1.2c1,0.7,1.5,1.7,1.8,2.5
			c0.3,0.7,0.3,1.2,0.3,1.2c0,0,0-0.1,0-0.3c0-0.2-0.1-0.5-0.2-0.9c-0.2-0.8-0.8-1.8-1.8-2.6c-1-0.8-2.2-1.1-3-1.2c-0.4,0-0.8,0-1,0
			C15.2,294,15,294,15,294"/>
		<path id="Fill-747" class="st15" d="M17.1,285.2c-0.1,0-0.2,1.7-0.3,3.8c-0.1,2.1-0.1,3.8,0,3.8c0.1,0,0.2-1.7,0.3-3.8
			C17.2,286.8,17.1,285.2,17.1,285.2"/>
		<path id="Fill-748" class="st15" d="M23.8,296.9c0,0.1,1.1,0.4,2.5,0.4c1.4,0.1,2.5-0.2,2.5-0.3c0-0.1-1.1,0-2.5-0.1
			C24.9,296.9,23.8,296.8,23.8,296.9"/>
		<path id="Fill-749" class="st15" d="M20.3,297.7c-0.1,0.1,0.1,0.3,0.3,0.6c0.2,0.3,0.3,0.6,0.3,0.6c0.1,0,0.1-0.3-0.1-0.7
			C20.7,297.8,20.4,297.6,20.3,297.7"/>
		<path id="Fill-750" class="st15" d="M18.9,295.3c-0.1,0.1,0.1,0.3,0.4,0.6c0.3,0.3,0.5,0.4,0.6,0.4c0.1-0.1-0.1-0.3-0.4-0.6
			C19.3,295.4,19,295.2,18.9,295.3"/>
		<path id="Fill-751" class="st15" d="M16.3,294.4c0,0.1,0.3,0.1,0.6,0.2c0.3,0.1,0.6,0.3,0.6,0.3c0.1,0-0.1-0.4-0.5-0.6
			C16.6,294.1,16.3,294.3,16.3,294.4"/>
		<path id="Fill-752" class="st15" d="M15.3,294.4c0,0.1,0.1,0.2,0.3,0.3c0.2,0.1,0.4,0.1,0.4,0c0-0.1-0.1-0.2-0.3-0.3
			C15.5,294.3,15.3,294.3,15.3,294.4"/>
		<polyline id="Fill-753" class="st22" points="43.9,101.9 35.9,292.1 12.7,291.8 15,125.6 -22.3,292.7 -42.6,292.7 -10.3,99.8 
			43.9,101.9 		"/>
		<path id="Fill-754" class="st15" d="M21.3,106c0.1,0-0.1,1.2-0.3,3.2c-0.3,1.9-0.7,4.6-1.2,7.6c-0.3,1.5-0.4,2.9-0.9,4.2
			c-0.4,1.3-1.2,2.3-2,2.9c-0.8,0.6-1.6,0.9-2.2,1c-0.6,0.1-0.9,0-0.9,0c0-0.1,1.3,0,2.8-1.2c0.7-0.6,1.4-1.6,1.8-2.8
			c0.4-1.2,0.5-2.6,0.8-4.1c0.5-2.9,1-5.6,1.4-7.5C20.9,107.2,21.2,106,21.3,106"/>
		<path id="Fill-755" class="st15" d="M15.4,107.8c0.1,0-0.2,0.3,0,0.8c0.1,0.2,0.2,0.5,0.5,0.6c0.2,0.1,0.6,0.1,0.9-0.2
			c0.3-0.2,0.4-0.6,0.3-0.8c-0.1-0.3-0.3-0.5-0.6-0.6c-0.5-0.2-0.8,0-0.8-0.1c-0.1,0,0.3-0.4,0.9-0.3c0.3,0.1,0.7,0.3,0.9,0.7
			c0.2,0.5,0,1-0.4,1.4c-0.4,0.4-1,0.5-1.4,0.2c-0.4-0.2-0.6-0.7-0.6-1C15,108,15.4,107.7,15.4,107.8"/>
		<path id="Fill-756" class="st15" d="M-0.7,109.8c-0.2,0-0.7-1.1-0.5-2.6c0.2-1.5,1-2.5,1.2-2.4c0.2,0.1-0.4,1.1-0.5,2.5
			C-0.8,108.6-0.5,109.8-0.7,109.8"/>
		<path id="Fill-757" class="st15" d="M3.2,109.8c-0.2,0-0.7-1.1-0.6-2.5c0.1-1.4,0.9-2.5,1.1-2.5c0.2,0-0.3,1.1-0.4,2.5
			C3.1,108.6,3.4,109.8,3.2,109.8"/>
		<path id="Fill-758" class="st15" d="M32.8,111c-0.2,0,0.1-1.4,0.2-3.1c0.1-1.7,0-3.1,0.2-3.1c0.2,0,0.7,1.4,0.5,3.2
			C33.6,109.7,32.9,111.1,32.8,111"/>
		<path id="Fill-759" class="st15" d="M37.6,111c-0.2-0.1,0.4-1.4,0.5-3.1c0.2-1.7-0.2-3.1,0-3.1c0.2-0.1,0.8,1.4,0.7,3.2
			C38.7,109.8,37.8,111.1,37.6,111"/>
		<path id="Fill-760" class="st12" d="M5.5,19.6l18.2-1.5c0.1-2.1,0-10.3,0-10.3s7.6-1.2,7.7-8.7c0.1-7.6-1.2-24.9-1.2-24.9
			c-8.8-3.8-18.9-2.5-26.5,3.3l-1.1,0.9L5.5,19.6"/>
		<path id="Fill-761" class="st23" d="M23.8,8.7c0,0-4.8,0.4-10-2.9c0,0,2.4,5.7,10,4.9L23.8,8.7"/>
		<path id="Fill-762" class="st12" d="M3.5-12.7c-0.1-0.1-4.9-1.5-4.7,3.5c0.2,4.9,5,3.7,5,3.6C3.8-5.8,3.5-12.7,3.5-12.7"/>
		<path id="Fill-763" class="st23" d="M2.5-7.2c0,0-0.1,0.1-0.3,0.2C2.1-7,1.8-6.9,1.6-7C1-7.2,0.5-8.2,0.4-9.2c0-0.5,0.1-1,0.2-1.4
			c0.2-0.4,0.4-0.7,0.7-0.8c0.3-0.1,0.5,0.1,0.6,0.3C2-11,1.9-10.9,2-10.9c0,0,0.1-0.1,0.1-0.3c0-0.1-0.1-0.2-0.2-0.4
			c-0.1-0.1-0.3-0.2-0.5-0.1c-0.4,0-0.8,0.5-1,0.9C0.1-10.3,0-9.8,0-9.2C0.1-8,0.7-7,1.5-6.7c0.4,0.1,0.7,0,0.9-0.2
			C2.5-7.1,2.5-7.2,2.5-7.2"/>
		<path id="Fill-764" class="st15" d="M28.8-14.3c0,0.7-0.5,1.3-1.2,1.3c-0.7,0-1.3-0.5-1.3-1.2c0-0.7,0.5-1.3,1.2-1.3
			C28.2-15.5,28.8-15,28.8-14.3"/>
		<path id="Fill-765" class="st15" d="M28.8-15.5C28.7-15.3,28-16,27-16c-1,0-1.8,0.6-1.9,0.5c-0.1-0.1,0.1-0.3,0.4-0.6
			c0.3-0.3,0.9-0.6,1.5-0.6c0.6,0,1.2,0.3,1.5,0.6C28.8-15.8,28.9-15.6,28.8-15.5"/>
		<path id="Fill-766" class="st15" d="M17.5-13c0,0.7-0.5,1.3-1.2,1.3c-0.7,0-1.3-0.5-1.3-1.2c0-0.7,0.5-1.3,1.2-1.3
			C16.9-14.3,17.5-13.7,17.5-13"/>
		<path id="Fill-767" class="st15" d="M16.3-14.2c-0.1,0.2-0.8-0.5-1.9-0.5c-1,0-1.8,0.6-1.9,0.5c-0.1-0.1,0.1-0.3,0.4-0.6
			c0.3-0.3,0.9-0.6,1.5-0.6c0.6,0,1.2,0.3,1.5,0.6C16.2-14.6,16.3-14.3,16.3-14.2"/>
		<path id="Fill-768" class="st15" d="M20.6-5.5c0-0.1,0.8-0.2,2-0.4c0.3,0,0.6-0.1,0.7-0.3c0.1-0.2-0.1-0.6-0.2-0.9
			c-0.3-0.7-0.6-1.5-0.9-2.3c-1.3-3.3-2.3-6-2.1-6.1c0.1,0,1.3,2.6,2.6,5.9C23-8.7,23.3-8,23.6-7.2c0.1,0.3,0.3,0.7,0.2,1.2
			c-0.1,0.2-0.3,0.4-0.5,0.4c-0.2,0.1-0.4,0.1-0.5,0.1C21.4-5.4,20.6-5.4,20.6-5.5"/>
		<path id="Fill-769" class="st15" d="M17.7-5.5C17.9-5.5,17.9-4,19-3c1,1,2.3,0.9,2.3,1c0,0.1-0.3,0.3-0.8,0.3
			c-0.5,0-1.3-0.2-2-0.8c-0.6-0.6-0.9-1.4-1-2C17.5-5.1,17.6-5.5,17.7-5.5"/>
		<path id="Fill-770" class="st15" d="M17.5-19.8c-0.1,0.3-1.2,0.1-2.5,0.3c-1.3,0.1-2.3,0.4-2.5,0.2c-0.1-0.1,0.1-0.3,0.5-0.6
			c0.4-0.2,1.1-0.5,1.9-0.6c0.8-0.1,1.5,0,1.9,0.2C17.4-20.1,17.6-19.9,17.5-19.8"/>
		<path id="Fill-771" class="st15" d="M27.5-18.1c-0.2,0.3-0.9,0-1.9,0c-0.9,0-1.7,0.2-1.9-0.1c-0.1-0.1,0-0.4,0.4-0.6
			c0.3-0.2,0.9-0.4,1.5-0.4c0.6,0,1.2,0.2,1.5,0.5C27.5-18.5,27.6-18.2,27.5-18.1"/>
		<path id="Fill-772" class="st15" d="M2.7-16.5c-2.4-0.5-4.1-3.3-3.4-5.6c-1.8-2-2.3-5.1-1.1-7.5c1.2-2.4,4-3.9,6.8-3.7
			c0-3,2.1-5.8,5-6.8c2.9-1,6.3,0,8.2,2.3c1.8-1.9,5.1-2.5,7.5-1.2c2.4,1.3,3.7,4.2,3,6.8c1.3-1.1,3.5-0.9,4.6,0.3
			c1.1,1.2,1.1,3.3-0.1,4.5c1.1,0.2,1.9,1.2,2,2.3c0,1.1-0.8,2.1-1.9,2.4c-0.1,1.4-1.3,2.6-2.7,2.8c-1.4,0.2-2.9-0.6-3.5-1.8
			c-0.4,1.8-2.7,2.7-4.5,2.1c-1.8-0.6-2.9-2.2-3.6-4c-0.6,0.9-1.6,1.6-2.8,1.6c-1.1,0-2.2-0.6-2.8-1.5c0.6,1.7-0.7,3.8-2.5,4
			c-0.2,2.3-2.4,4.3-4.8,4.1c-2.3-0.1-4.4-2.4-4.2-4.7"/>
		<path id="Fill-773" class="st15" d="M0-20.5c0.3,2,1,6.1,1.4,8.2c0.1,0.6,0.2,1.2,0.8,1.6c0.8,0.5,1.9,0.2,2.5-0.5
			c0.6-0.7,0.7-1.6,0.8-2.4c0.3-2.1,0.5-4.2,0.8-6.2"/>
		<path id="Fill-774" class="st22" d="M20-14.2c0,0,0-0.4-0.2-1.2c-0.2-0.7-0.7-1.8-1.8-2.5c-1.1-0.8-2.8-1.2-4.4-0.6
			c-1.7,0.6-3.1,2.3-3.1,4.3c0,2,1.4,3.8,3.1,4.3c1.7,0.6,3.4,0.2,4.4-0.6c1.1-0.8,1.6-1.8,1.8-2.5C20-13.8,20-14.2,20-14.2
			c0,0,0,0.1,0,0.3c0,0.2,0,0.5-0.1,0.9c-0.2,0.8-0.6,1.9-1.8,2.8c-1.1,0.9-3,1.4-4.8,0.8c-0.9-0.3-1.8-0.9-2.4-1.7
			c-0.6-0.8-1-1.9-1-3c0-1.1,0.4-2.2,1-3c0.6-0.8,1.5-1.4,2.4-1.7c1.8-0.6,3.7-0.1,4.8,0.8c1.1,0.9,1.6,2,1.8,2.8
			c0.1,0.4,0.1,0.7,0.1,0.9C20-14.3,20-14.2,20-14.2"/>
		<path id="Fill-775" class="st22" d="M32.5-14.2c0,0,0-0.4-0.2-1.2c-0.2-0.7-0.7-1.8-1.8-2.5c-1.1-0.8-2.8-1.2-4.4-0.6
			C24.4-18,23-16.2,23-14.2c0,2,1.4,3.8,3.1,4.3c1.7,0.6,3.4,0.2,4.4-0.6c1.1-0.8,1.6-1.8,1.8-2.5C32.5-13.8,32.5-14.2,32.5-14.2
			c0,0,0,0.1,0,0.3c0,0.2,0,0.5-0.1,0.9c-0.2,0.8-0.6,1.9-1.8,2.8c-1.1,0.9-3,1.4-4.8,0.8c-0.9-0.3-1.8-0.9-2.4-1.7
			c-0.6-0.8-1-1.9-1-3c0-1.1,0.4-2.2,1-3c0.6-0.8,1.5-1.4,2.4-1.7c1.8-0.6,3.7-0.1,4.8,0.8c1.1,0.9,1.6,2,1.8,2.8
			c0.1,0.4,0.1,0.7,0.1,0.9C32.6-14.3,32.6-14.2,32.5-14.2"/>
		<path id="Fill-776" class="st22" d="M22.6-14.9c0,0.2-0.6,0.3-1.3,0.3s-1.3-0.1-1.3-0.3c0-0.2,0.6-0.3,1.3-0.3S22.6-15,22.6-14.9"
			/>
		<path id="Fill-777" class="st22" d="M10-14.1c0,0.2-1.7,0.5-3.7,0.9C4.2-13,2.5-12.9,2.5-13c0-0.2,1.7-0.5,3.7-0.9
			C8.3-14.2,10-14.3,10-14.1"/>
		<path id="Fill-778" class="st22" d="M12.7-34.4c0,0,0.2,0,0.4,0.2c0.2,0.1,0.6,0.5,0.7,1c0.2,0.5,0.2,1.2-0.2,1.9
			c-0.4,0.7-1.4,1.1-2.4,0.9c-0.5-0.1-1-0.3-1.4-0.6c-0.4-0.4-0.7-0.9-0.9-1.4C8.6-33.6,8.9-35,9.7-36c1.7-2,5.1-2.6,7.8-1.4
			c1.3,0.6,2.4,1.5,3.1,2.7c0.6,1.2,0.6,2.7-0.2,3.7l-0.3-0.3c1.9-0.8,4-0.3,5.2,1c1.1,1.2,1.3,2.9,0.8,4c-0.5,1.1-1.4,1.7-2,1.9
			c-0.3,0.1-0.6,0.2-0.7,0.2c-0.2,0-0.3,0-0.3,0c0,0,0.4,0,0.9-0.3c0.6-0.3,1.3-0.8,1.8-1.9c0.4-1,0.2-2.5-0.8-3.7
			c-1-1.1-3-1.6-4.7-0.8l-0.8,0.4l0.6-0.7c0.7-0.9,0.7-2.2,0.2-3.3c-0.6-1.1-1.6-1.9-2.8-2.5c-2.6-1.1-5.7-0.6-7.3,1.2
			c-0.8,0.9-1,2.1-0.8,3.1c0.3,1,1.1,1.7,2,1.8c0.9,0.2,1.7-0.2,2.1-0.7c0.4-0.6,0.4-1.3,0.3-1.7c-0.1-0.5-0.4-0.8-0.6-1
			C12.9-34.4,12.7-34.4,12.7-34.4"/>
		<path id="Fill-779" class="st16" d="M44.9,24.6c0,0,6.3,7.1,6.5,26.1C51.5,64.4,52.6,81,52.6,81l-8.8-0.8L44.9,24.6"/>
		<path id="Fill-780" class="st16" d="M-18.8,30.3c1.6-5.4,7.4-11.3,15.4-12.9c2.6-0.5,5-1.4,8-1.6c6.5,2,12.9,2,19.4,0
			c0.8,0.1,1.9,0.2,3.3,0.4c8.4,1,11.7,2.8,17.7,8.8l-0.7,34.4c0,0-0.3,38.9-0.4,45.2l-55.3,0.2l3.2-36.6L-18.8,30.3"/>
		<path id="Fill-781" class="st16" d="M-8.8,68.1l-10.7,13.9l4.1,4.1L-26.8,101c0,0-20.1-12.1-19.6-15.4
			c0.6-3.3,27.5-57.2,27.5-57.2s10.9,1.1,10,17C-9.6,61.2-8.8,68.1-8.8,68.1"/>
		<path id="Fill-782" class="st15" d="M-7.5,73.5c0,0-0.1-0.4-0.1-1.1c-0.1-0.7-0.2-1.8-0.3-3.1c-0.2-2.6-0.4-6.2-0.6-10.2
			c-0.2-4-0.2-7.6-0.2-10.2c0-1.3,0-2.4,0.1-3.1c0-0.7,0.1-1.1,0.1-1.1c0,0,0,0.4,0.1,1.1c0,0.8,0,1.9,0,3.1c0,2.6,0.1,6.2,0.3,10.2
			C-8,63-7.8,66.5-7.7,69.2c0.1,1.2,0.1,2.3,0.1,3.1C-7.5,73.1-7.5,73.5-7.5,73.5"/>
		<path id="Fill-783" class="st15" d="M-30,86c0,0,0.4-0.6,1.2-1.4c0.8-0.8,2.2-1.8,3.8-2.5c1.6-0.7,3.3-1.1,4.5-1
			c1.2,0.1,1.8,0.7,1.8,0.7c0,0.1-0.6-0.4-1.8-0.4c-1.1,0-2.7,0.4-4.3,1.1C-28.1,83.8-30,86.1-30,86"/>
		<path id="Fill-784" class="st15" d="M-27.5,77.3c0-0.1,2.4-0.3,5.2,0.9c0.7,0.3,1.3,0.7,1.9,1c0.5,0.4,1,0.7,1.4,1.2
			c0.4,0.5,0.4,1,0.3,1.4c-0.1,0.3-0.2,0.4-0.3,0.4c0,0,0.1-0.2,0.1-0.5c0-0.3-0.1-0.7-0.4-1.1c-0.3-0.4-0.8-0.7-1.4-1
			c-0.5-0.3-1.2-0.7-1.8-1C-25.2,77.5-27.6,77.5-27.5,77.3"/>
		<path id="Fill-785" class="st15" d="M44.6,88.5c-0.2,0-0.4-11.2-0.4-25.1c-0.1-13.8,0-25.1,0.2-25.1c0.2,0,0.4,11.2,0.4,25.1
			C44.9,77.3,44.8,88.5,44.6,88.5"/>
		<polyline id="Fill-786" class="st24" points="-8.4,68.2 -8.4,68.2 -7.8,67.4 -8.4,68.2 		"/>
		<path id="Fill-787" class="st25" d="M-9.1,68.5c-1.7-4-3.1-8-4.5-12.2c-0.1-0.4-0.2-0.9,0-1.2c0.1-0.1,0.2-0.2,0.4-0.2
			c0.2,0,0.4,0.1,0.5,0.2c0.2,0.2,0.4,0.5,0.5,0.9c0-2.7,0.4-5.4,1.1-7.9c0.1-0.4,0.3-0.9,0.7-0.9c0,0,0,0,0.1,0
			c0.4,0.1,0.5,0.6,0.6,1.1c0,1.5,0.1,2.9,0.2,4.4c0,1.9,0.1,4.2,0.2,6.5c0.2,3.3,0.4,6.4,0.6,8.8L-9.1,68.5"/>
		<path id="Fill-788" class="st13" d="M-8.8,68.5L-8.8,68.5c-0.3-2.6-0.6-5.8-0.9-9.4c-0.2-2.5-0.3-4.8-0.3-6.9
			C-9.6,57.6-9,62.8-8.8,68.5L-8.8,68.5"/>
		<path id="Fill-789" class="st25" d="M-31.3,86c-0.3,0-0.6-0.1-0.8-0.3c-0.5-0.4-0.6-1.2-0.4-1.8c0.2-0.6,0.6-1.1,1.1-1.5
			c2.1-1.9,4.9-2.7,7.6-2.7c0.9,0,1.9,0.1,2.8,0.3c0.5,0.1,0.9,0.2,1.3,0.5c0.2,0.1,0.4,0.3,0.6,0.6c0,0,0,0.1,0,0.1
			c0,0.3-0.1,0.4-0.1,0.4c0,0,0,0,0,0c0,0,0.1-0.1,0.2-0.3c0,0.1,0.1,0.2,0.1,0.3l0,0.1c-0.2,0-0.3-0.1-0.5-0.1
			c-0.3-0.2-0.7-0.3-1.3-0.4c-0.1,0-0.3,0-0.4,0c-1.2,0-2.6,0.4-4.1,1.1c-1.1,0.5-2.1,1.2-2.9,1.9c-0.5,0.3-1,0.6-1.5,1
			c-0.4,0.3-0.8,0.6-1.2,0.7C-30.9,86-31.1,86-31.3,86"/>
		<path id="Fill-790" class="st13" d="M-28.8,83.5c0.8-0.5,1.8-1.1,2.9-1.6c1.5-0.6,2.9-0.9,4.1-0.9c0.1,0,0.3,0,0.4,0
			c0.6,0,1,0.2,1.3,0.3c-0.4,0-0.7-0.1-1.1-0.1c-1.4,0-2.8,0.3-4.1,0.8C-26.5,82.4-27.7,82.9-28.8,83.5"/>
		<path id="Fill-791" class="st13" d="M-19.6,82C-19.6,82-19.6,82-19.6,82c-0.1,0,0.1-0.2,0.1-0.6c0,0,0-0.1,0-0.1
			c0.1,0.1,0.1,0.2,0.2,0.3C-19.4,81.9-19.5,82-19.6,82"/>
		<path id="Fill-792" class="st15" d="M-8.8,58.9c0,0-0.1,0.2-0.5,0.4c-0.2,0.1-0.4,0.2-0.7,0.3c-0.1,0-0.3,0.1-0.5,0.1
			c-0.2,0-0.5-0.1-0.6-0.2c-1-1-1.9-2.6-2.8-4.3c-0.9-1.8-1.5-3.5-1.9-4.7c-0.4-1.2-0.6-2-0.5-2c0.1,0,0.4,0.7,0.9,1.9
			c0.5,1.2,1.2,2.9,2.1,4.6c0.9,1.7,1.8,3.3,2.7,4.3c0.2,0.2,0.4,0.2,0.7,0.1c0.3-0.1,0.5-0.1,0.6-0.2C-9,59-8.8,58.9-8.8,58.9"/>
		<path id="Fill-793" class="st15" d="M-1.6,99.8c0,0,0-0.1,0-0.2c0-0.2,0-0.4,0-0.6c0-0.6-0.1-1.4-0.1-2.4
			c-0.1-2.1-0.2-5.1-0.3-8.9c-0.2-7.5-0.4-17.8-0.4-29.2C-2.5,47-2.3,36.6-2,29.2c0.2-3.7,0.3-6.8,0.5-8.8c0.1-1,0.1-1.8,0.2-2.4
			c0-0.2,0-0.5,0.1-0.6c0-0.1,0-0.2,0-0.2c0,0,0,0.1,0,0.2c0,0.2,0,0.4,0,0.6c0,0.6-0.1,1.4-0.1,2.4c-0.1,2.1-0.2,5.1-0.4,8.8
			C-2,36.7-2.2,47-2.1,58.4c0,11.4,0.2,21.8,0.3,29.2c0.1,3.7,0.1,6.7,0.2,8.9c0,1,0,1.8,0,2.4c0,0.3,0,0.5,0,0.6
			C-1.6,99.7-1.6,99.8-1.6,99.8"/>
		<path id="Fill-794" class="st15" d="M16.3,17.1c0,0,0,0.1,0,0.2c0,0.2,0,0.4,0,0.7c0,0.6,0.1,1.5,0.1,2.5c0.1,2.2,0.3,5.4,0.4,9.4
			c0.3,7.9,0.6,18.9,0.6,31c0,12.1-0.2,23.1-0.6,31c-0.2,4-0.3,7.2-0.4,9.4c-0.1,1.1-0.1,1.9-0.2,2.5c0,0.3,0,0.5-0.1,0.7
			c0,0.1,0,0.2,0,0.2c0,0,0-0.1,0-0.2c0-0.2,0-0.4,0-0.7c0-0.6,0.1-1.5,0.1-2.6c0.1-2.2,0.2-5.4,0.3-9.4c0.3-7.9,0.5-18.9,0.5-31
			c0-12.1-0.3-23.1-0.5-31c-0.1-3.9-0.2-7.1-0.3-9.4c0-1.1-0.1-1.9-0.1-2.6c0-0.3,0-0.5,0-0.7C16.3,17.2,16.3,17.1,16.3,17.1"/>
		<path id="Fill-795" class="st15" d="M33.2,104.8c0,0,0-0.1,0-0.2c0-0.2,0-0.4,0-0.7c0-0.6-0.1-1.5-0.1-2.5
			c-0.1-2.2-0.2-5.4-0.3-9.3c-0.2-7.8-0.1-18.7,0.5-30.6c0.6-12,1.7-22.8,2.6-30.5c0.5-3.9,0.9-7,1.2-9.2c0.2-1.1,0.3-1.9,0.4-2.5
			c0-0.3,0.1-0.5,0.1-0.6c0-0.1,0-0.2,0.1-0.2c0,0,0,0.1,0,0.2c0,0.2,0,0.4-0.1,0.7c-0.1,0.6-0.2,1.4-0.3,2.5
			c-0.3,2.2-0.6,5.3-1.1,9.2c-0.9,7.8-1.9,18.6-2.5,30.5c-0.6,11.9-0.7,22.8-0.7,30.6c0,3.9,0.1,7.1,0.1,9.3c0,1.1,0,1.9,0,2.5
			c0,0.3,0,0.5,0,0.7C33.2,104.7,33.2,104.8,33.2,104.8"/>
		<path id="Fill-796" class="st15" d="M-38.6,92.3c0,0-0.2-0.2-0.4-0.6c-0.3-0.4-0.6-1.1-0.8-2c-0.5-1.8-0.2-4.7,1.1-7.8
			c0.6-1.6,1.4-3.2,2.2-5c0.8-1.8,1.7-3.7,2.6-5.7c1.8-4,3.8-8.5,5.8-13.2c4-9.4,7.2-18.1,9.5-24.4c1.1-3.1,2-5.7,2.7-7.5
			c0.3-0.8,0.5-1.5,0.7-2c0.2-0.5,0.3-0.7,0.3-0.7c0,0,0,0.3-0.2,0.7c-0.2,0.5-0.4,1.2-0.6,2.1c-0.6,1.8-1.4,4.4-2.5,7.5
			c-2.2,6.3-5.4,15-9.4,24.4c-2,4.7-3.9,9.2-5.8,13.2c-0.9,2-1.8,3.9-2.7,5.7c-0.8,1.8-1.7,3.4-2.3,5c-1.3,3.1-1.6,5.8-1.2,7.6
			C-39.3,91.4-38.5,92.2-38.6,92.3"/>
		<path id="Fill-797" class="st15" d="M-25,78.5c-0.1-0.1,2.3-5.2,5.4-11.4c3.1-6.2,5.7-11.2,5.8-11.2c0.1,0.1-2.3,5.2-5.4,11.4
			C-22.3,73.5-24.9,78.5-25,78.5"/>
		<path id="Fill-798" class="st15" d="M-21.3,92.2c-0.1,0.1-2.3-1.3-4-3.8c-1.8-2.5-2.3-4.9-2.2-5c0.2,0,0.9,2.3,2.6,4.7
			C-23.2,90.6-21.2,92.1-21.3,92.2"/>
		<path id="Fill-799" class="st25" d="M21.8,88.5c-1.6,0-3.3,0-4.9-0.1c0-0.7,0.1-1.5,0.1-2.3L32.6,86c0,0.7,0,1.3,0,2
			C29,88.3,25.4,88.5,21.8,88.5 M16.5,88.4c-5.6-0.3-11.1-1-16.5-2.1l16.6-0.1C16.6,86.9,16.5,87.6,16.5,88.4"/>
		<path id="Fill-800" class="st26" d="M43.9,86.9c0-0.2,0-0.3,0-0.5l1.2,0C44.7,86.5,44.3,86.7,43.9,86.9"/>
		<path id="Fill-801" class="st25" d="M32.6,88.5c0-0.8,0-1.6,0-2.4L43.8,86c0,0.1,0,0.3,0,0.4C40.1,87.3,36.4,88,32.6,88.5"/>
		<path id="Fill-802" class="st13" d="M44.4,86.9c0-0.2,0-0.4,0-0.6l0.3,0c0,0.2,0,0.3,0,0.5C44.5,86.9,44.4,86.9,44.4,86.9"/>
		<path id="Fill-803" class="st13" d="M17.1,88.5c-0.2,0-0.3,0-0.5,0c0-0.8,0.1-1.6,0.1-2.5l0.5,0C17.2,86.9,17.1,87.7,17.1,88.5"/>
		<path id="Fill-804" class="st13" d="M33,88.5c0-0.8,0-1.6,0-2.5l0.5,0c0,0.8,0,1.7,0,2.5C33.3,88.5,33.1,88.5,33,88.5"/>
		<path id="Fill-805" class="st12" d="M0.8,101.5c0,0,8.6,11.3,9.2,13.2c0.3,1.2-0.4,1.7-1.5,1c-1-0.7-7-6.9-7-6.9s-1.3-0.6-0.7,0.3
			c0.6,0.9,4.9,8.4,5.3,9.6c0.8,2.7-1.2,3.8-2.3,2.4c-0.7-0.9-0.9-1.2-0.9-1.2s0.2,1.2-0.2,1.9c-0.4,0.6-1.5,0.6-1.9,0.1
			c-0.5-0.8-3.2-5-3.3-5.3c-0.1-0.3-0.6-1.1-0.6-1.1s0.7,4,0.6,4.8c-0.1,0.8-1.5,0.5-2.1-0.7c-0.7-1.2-2.9-6.1-2.9-6.1
			s-6.9-6.3-7.6-7.7c-0.7-1.5-1.1-3-1.1-3l-8.7-4.7l7.2-9.5c0,0,15.8,9.9,18.7,13.2"/>
		<path id="Fill-806" class="st23" d="M-1.2,111c0.1-0.1,1.5,1.8,2.9,4.2c1.4,2.4,2.2,4.5,2.1,4.6c-0.1,0.1-1.2-1.9-2.6-4.4
			C-0.2,113-1.4,111.1-1.2,111"/>
		<path id="Fill-807" class="st23" d="M-5,111c0.1-0.1,1.1,0.9,1.8,2.3c0.7,1.4,0.8,2.7,0.6,2.7c-0.1,0-0.4-1.2-1.1-2.5
			C-4.3,112.1-5.1,111.1-5,111"/>
		<path id="Fill-808" class="st12" d="M66.3,86.1c0,0,0.3,3.2-0.4,4C65.3,91,61,91,59,91c-2,0-15.1,0-15.1,0l-0.1-5L66.3,86.1"/>
		<path id="Fill-809" class="st27" d="M80,51.9c-4.1,9.4-15.8,34-15.8,34H1.3c0-1.6,1.3-3,2.9-3h11.5l13.4-33
			c0.4-0.9,1.3-1.5,2.3-1.5h46.3C79.5,48.4,80.7,50.3,80,51.9"/>
		<path id="Fill-810" class="st28" d="M51,68.2c-0.4-0.6-1.5-1.1-2.2-1c-1.1,0-2.4,1.2-2.5,2.4c-0.1,1.2,0.9,2.4,2.1,2.5
			c1.2,0.1,2.3-0.7,2.8-1.8C51.5,69.7,51.4,68.8,51,68.2"/>
		<path id="Fill-811" class="st12" d="M63.7,88.1c0.3-2.5,0.2-6.8-0.3-9.2c-0.1-0.4-0.2-0.8-0.4-1.1c-0.2-0.3-0.5-0.6-0.9-0.6
			c-0.5,0-0.9,0.3-1.1,0.7c-0.2,0.4-0.3,0.9-0.4,1.4c-0.3,2.1-0.5,6.9-0.5,9.1"/>
		<path id="Fill-812" class="st12" d="M59.8,87.2c0.3-2.4,0.6-4.8,0-7.1c-0.1-0.4-0.2-0.7-0.4-1.1c-0.2-0.3-0.6-0.6-1-0.6
			c-0.5,0-1,0.3-1.2,0.7c-0.3,0.4-0.3,0.9-0.4,1.4c-0.3,2.1-0.4,4.1-0.4,6.2"/>
		<path id="Fill-813" class="st12" d="M56,89.7c0.3-2.4,0.6-4.8,0-7.1c-0.1-0.4-0.2-0.7-0.4-1.1c-0.2-0.3-0.6-0.6-1-0.6
			c-0.5,0-1,0.3-1.2,0.7c-0.3,0.4-0.3,0.9-0.4,1.4c-0.3,2.1-0.4,4.1-0.4,6.2"/>
		<path id="Fill-814" class="st12" d="M66.3,88.5c0,0,0.4-3.3-0.2-5.8c-0.1-0.4-0.2-0.8-0.4-1.1c-0.2-0.3-0.6-0.6-1-0.6
			c-0.5,0-1,0.3-1.2,0.8c-0.3,0.4-0.3,1-0.4,1.5c-0.3,2.2-0.4,4.4-0.4,6.5"/>
		<path id="Fill-815" class="st23" d="M56.4,88.4c0-0.1,0.4,0,0.7-0.5c0.3-0.4,0.2-1.3,0.2-2.2c-0.1-1.9-0.1-3.4,0.1-3.4
			c0.1,0,0.3,1.5,0.4,3.4c0,0.5,0,0.9,0,1.4c0,0.4-0.1,0.9-0.4,1.1c-0.2,0.3-0.5,0.4-0.6,0.4C56.5,88.5,56.4,88.4,56.4,88.4"/>
		<path id="Fill-816" class="st23" d="M58.9,89.7c0-0.1,0.6-0.2,0.7-0.9c0.1-0.3,0-0.7-0.1-1.2c-0.1-0.5-0.1-1-0.2-1.5
			c-0.2-2.1-0.2-3.9,0-3.9c0.2,0,0.5,1.7,0.7,3.9c0,0.5,0.1,1,0.1,1.5c0,0.5,0.1,0.9-0.1,1.3c-0.1,0.4-0.4,0.7-0.7,0.8
			C59.1,89.8,58.9,89.7,58.9,89.7"/>
		<path id="Fill-817" class="st23" d="M63.7,88.5c-0.2,0-0.6-1.4-0.8-3.1c-0.2-1.7-0.1-3.2,0.1-3.2c0.2,0,0.3,1.4,0.5,3.1
			C63.7,87.1,63.9,88.5,63.7,88.5"/>
	</g>
</g>
</svg>
