<?xml version="1.0" encoding="UTF-8"?>
<svg width="150px" height="150px" viewBox="0 0 150 150" version="1.1" xmlns="http://www.w3.org/2000/svg" xmlns:xlink="http://www.w3.org/1999/xlink">
    <title>f3 copy</title>
    <g id="f3-copy" stroke="none" stroke-width="1" fill="none" fill-rule="evenodd">
        <g id="conversation" transform="translate(21.000000, 47.000000)" fill="#000000" fill-rule="nonzero">
            <g id="Group" transform="translate(61.160000, 0.180000)">
                <path d="M23.078,30.228 C14.85,30.228 7.964,23.584 7.964,15.114 C7.964,6.886 14.608,0 23.078,0 C31.306,0 38.192,6.644 38.192,15.114 C38.192,23.584 31.306,30.228 23.078,30.228 Z M23.078,4.84 C17.358,4.84 12.54,9.636 12.54,15.378 C12.54,21.12 17.336,25.916 23.078,25.916 C28.82,25.916 33.616,21.12 33.616,15.378 C33.616,9.636 29.018,4.84 23.078,4.84 Z" id="Shape"></path>
                <path d="M37.026,81.51 L9.108,81.51 L9.108,66.858 L0.176,66.858 L0.176,46.728 C0.176,38.72 5.214,32.318 11.396,32.318 L34.98,32.318 C41.162,32.318 46.2,38.72 46.2,46.728 L46.2,66.858 L37.268,66.858 L37.268,81.51 L37.026,81.51 L37.026,81.51 Z M13.464,76.934 L32.45,76.934 L32.45,62.282 L41.382,62.282 L41.382,46.486 C41.382,41.228 38.412,36.652 34.738,36.652 L11.396,36.652 C7.744,36.652 4.752,41.228 4.752,46.486 L4.752,62.282 L13.684,62.282 L13.684,76.934 L13.464,76.934 L13.464,76.934 Z" id="Shape"></path>
            </g>
            <g id="Group" transform="translate(0.000000, 0.400000)">
                <path d="M22.902,30.008 C14.674,30.008 7.788,23.364 7.788,15.136 C7.788,6.666 14.652,0.022 22.902,0.022 C31.152,0.022 38.016,6.666 38.016,15.136 C37.774,23.386 31.13,30.008 22.902,30.008 Z M22.902,4.62 C16.962,4.62 12.364,9.196 12.364,15.158 C12.364,21.12 17.16,25.696 22.902,25.696 C28.644,25.696 33.44,20.9 33.44,15.158 C33.44,9.416 28.622,4.62 22.902,4.62 Z" id="Shape"></path>
                <path d="M36.85,81.29 L8.932,81.29 L8.932,66.638 L0.022,66.638 L0.022,46.508 C0.022,38.5 5.06,32.098 11.242,32.098 L34.804,32.098 C40.986,32.098 46.024,38.5 46.024,46.508 L46.024,66.638 L37.092,66.638 L37.092,81.29 L36.85,81.29 Z M13.288,76.714 L32.274,76.714 L32.274,62.062 L41.206,62.062 L41.206,46.266 C41.206,41.008 38.236,36.432 34.562,36.432 L11,36.432 C7.348,36.432 4.356,41.008 4.356,46.266 L4.356,62.062 L13.288,62.062 L13.288,76.714 Z" id="Shape"></path>
            </g>
        </g>
        <path d="M68,55.6818182 L68,49.0909091 L64,49.0909091 C61.7866667,49.0909091 60,47.3245455 60,45.1363636 L60,31.9545455 C60,29.7663636 61.7866667,28 64,28 L88,28 C90.2133333,28 92,29.7663636 92,31.9545455 L92,45.1363636 C92,47.3245455 90.2133333,49.0909091 88,49.0909091 L78.5066667,49.0909091 L70.24,56.6572727 C69.9733333,56.8681818 69.6533333,57 69.3333333,57 C69.1466667,57 68.96,56.9736364 68.8,56.8945455 C68.32,56.6836364 68,56.2090909 68,55.6818182 L68,55.6818182 Z M89.3333333,31.9545455 C89.3333333,31.2427273 88.72,30.6363636 88,30.6363636 L64,30.6363636 C63.28,30.6363636 62.6666667,31.2427273 62.6666667,31.9545455 L62.6666667,45.1363636 C62.6666667,45.8745455 63.28,46.4545455 64,46.4545455 L69.3333333,46.4545455 C70.08,46.4545455 70.6666667,47.0345455 70.6666667,47.7727273 L70.6666667,52.6763636 L77.0933333,46.7972727 C77.3333333,46.5863636 77.6533333,46.4545455 78,46.4545455 L88,46.4545455 C88.72,46.4545455 89.3333333,45.8745455 89.3333333,45.1363636 L89.3333333,31.9545455 Z" id="Shape-Copy" stroke="#000000" fill="#000000" fill-rule="nonzero"></path>
        <circle id="Oval" fill="#0A9BCC" cx="44" cy="62.5" r="11"></circle>
        <circle id="Oval-Copy" fill="#EC1066" cx="105" cy="62.5" r="11"></circle>
    </g>
</svg>