<?xml version="1.0" encoding="UTF-8"?>
<svg width="150px" height="150px" viewBox="0 0 150 150" version="1.1" xmlns="http://www.w3.org/2000/svg" xmlns:xlink="http://www.w3.org/1999/xlink">
    <title>f1 copy</title>
    <g id="f1-copy" stroke="none" stroke-width="1" fill="none" fill-rule="evenodd">
        <g id="001-choose" transform="translate(24.000000, 34.000000)" fill-rule="nonzero">
            <path d="M67.15,62.9 C64.8023,62.9 62.9,64.8023 62.9,67.15 C62.9,64.8023 60.9977,62.9 58.65,62.9 C56.3023,62.9 54.4,64.8023 54.4,67.15 C54.4,64.8023 52.4977,62.9 50.15,62.9 C47.8023,62.9 45.9,64.8023 45.9,67.15 L45.9,46.75 C45.9,44.4023 43.9977,42.5 41.65,42.5 C39.3023,42.5 37.4,44.4023 37.4,46.75 L37.4,66.3 L30.6,73.1 L30.6,81.6 L37.4,88.4 L37.4,100.3 L71.4,100.3 L71.4,67.15 C71.4,64.8023 69.4977,62.9 67.15,62.9 Z" id="Path"></path>
            <circle id="Oval" fill="#EC1066" cx="16.15" cy="16.15" r="14.45"></circle>
            <polygon id="Path" fill="#0A9BCC" points="64.6 30.6 49.3 1.7 34 30.6 49.3 30.6"></polygon>
            <rect id="Rectangle" fill="#00A89C" x="71.4" y="1.7" width="28.9" height="28.9"></rect>
            <g id="Group" fill="#000000">
                <path d="M16.15,0 C7.2454,0 0,7.2454 0,16.15 C0,25.0546 7.2454,32.3 16.15,32.3 C25.0546,32.3 32.3,25.0546 32.3,16.15 C32.3,7.2454 25.0546,0 16.15,0 Z M16.15,28.9 C9.1188,28.9 3.4,23.1812 3.4,16.15 C3.4,9.1188 9.1188,3.4 16.15,3.4 C23.1812,3.4 28.9,9.1188 28.9,16.15 C28.9,23.1812 23.1812,28.9 16.15,28.9 Z" id="Shape"></path>
                <path d="M32.5431,31.4772 C32.8508,31.9872 33.4033,32.3 34,32.3 L64.6,32.3 C65.1967,32.3 65.7492,31.9872 66.0569,31.4772 C66.3646,30.9672 66.3816,30.3314 66.1028,29.8061 L50.8028,0.9061 C50.2129,-0.2057 48.3871,-0.2057 47.7972,0.9061 L32.4972,29.8061 C32.2184,30.3314 32.2354,30.9672 32.5431,31.4772 Z M49.3,5.3346 L61.7763,28.9 L36.8237,28.9 L49.3,5.3346 Z" id="Shape"></path>
                <path d="M100.3,0 L71.4,0 C70.4616,0 69.7,0.7599 69.7,1.7 L69.7,30.6 C69.7,31.5401 70.4616,32.3 71.4,32.3 L100.3,32.3 C101.2384,32.3 102,31.5401 102,30.6 L102,1.7 C102,0.7599 101.2384,0 100.3,0 Z M98.6,28.9 L73.1,28.9 L73.1,3.4 L98.6,3.4 L98.6,28.9 Z" id="Shape"></path>
                <path d="M67.15,61.2 C65.484,61.2 63.9812,61.8919 62.9,62.9986 C61.8188,61.8919 60.316,61.2 58.65,61.2 C56.984,61.2 55.4812,61.8919 54.4,62.9986 C53.3188,61.8919 51.816,61.2 50.15,61.2 C49.2337,61.2 48.3752,61.4261 47.6,61.7967 L47.6,46.75 C47.6,43.469 44.931,40.8 41.65,40.8 C38.369,40.8 35.7,43.469 35.7,46.75 L35.7,65.5962 L29.3981,71.8981 C29.0785,72.216 28.9,72.6478 28.9,73.1 L28.9,81.6 C28.9,82.0522 29.0785,82.484 29.3981,82.8019 L35.7,89.1038 L35.7,100.3 C35.7,101.2401 36.4616,102 37.4,102 L71.4,102 C72.3384,102 73.1,101.2401 73.1,100.3 L73.1,67.15 C73.1,63.869 70.431,61.2 67.15,61.2 Z M69.7,98.6 L39.1,98.6 L39.1,88.4 C39.1,87.9478 38.9215,87.516 38.6019,87.1981 L32.3,80.8962 L32.3,73.8038 L35.7,70.4038 L35.7,73.1 L39.1,73.1 L39.1,46.75 C39.1,45.3441 40.2441,44.2 41.65,44.2 C43.0559,44.2 44.2,45.3441 44.2,46.75 L44.2,67.15 L44.2,69.7 L47.6,69.7 L47.6,67.15 C47.6,65.7441 48.7441,64.6 50.15,64.6 C51.5559,64.6 52.7,65.7441 52.7,67.15 L52.7,69.7 L56.1,69.7 L56.1,67.15 C56.1,65.7441 57.2441,64.6 58.65,64.6 C60.0559,64.6 61.2,65.7441 61.2,67.15 L61.2,69.7 L64.6,69.7 L64.6,67.15 C64.6,65.7441 65.7441,64.6 67.15,64.6 C68.5559,64.6 69.7,65.7441 69.7,67.15 L69.7,98.6 Z" id="Shape"></path>
            </g>
        </g>
    </g>
</svg>