<?xml version="1.0" encoding="UTF-8"?>
<svg width="150px" height="150px" viewBox="0 0 150 150" version="1.1" xmlns="http://www.w3.org/2000/svg" xmlns:xlink="http://www.w3.org/1999/xlink">
    <title>f2 copy</title>
    <g id="f2-copy" stroke="none" stroke-width="1" fill="none" fill-rule="evenodd">
        <g id="003-chat" transform="translate(18.000000, 18.000000)" fill-rule="nonzero">
            <circle id="Oval" fill="#00A89C" cx="97.9626665" cy="19.1146665" r="3.3415465"></circle>
            <circle id="Oval" fill="#0A9BCC" cx="86.0159998" cy="19.1146665" r="3.3415465"></circle>
            <path d="M90.7946667,109.909333 C90.7946667,110.721707 90.3645867,111.486293 89.6477867,111.96416 C89.2654933,112.203093 88.8354133,112.298667 88.4053333,112.298667 C88.02304,112.298667 87.6885333,112.203093 87.3540267,112.059733 L66.9013333,101.833387 L66.9013333,96.48128 L86.016,106.038613 L86.016,65.9933867 L66.9013333,75.55072 L66.9013333,70.1986133 L87.3540267,59.9722667 C88.0708267,59.5899733 88.9787733,59.63776 89.6477867,60.06784 C90.3645867,60.5457067 90.7946667,61.3102933 90.7946667,62.1226667 L90.7946667,109.909333 Z" id="Path" fill="#000000"></path>
            <circle id="Oval" fill="#EC1066" cx="74.0693332" cy="19.1146665" r="3.3415465"></circle>
            <path d="M62.3616,96.91136 C62.9828267,95.7166933 64.4164267,95.2388267 65.5633067,95.8122667 L66.9013333,96.48128 L66.9013333,101.833387 L63.4606933,100.113067 C62.6005333,99.6829867 62.1226667,98.8228267 62.1226667,97.9626667 C62.1226667,97.5803733 62.21824,97.2458667 62.3616,96.91136 L62.3616,96.91136 Z" id="Path" fill="#000000"></path>
            <path d="M65.5633067,95.8122667 C64.4164267,95.2388267 62.9828267,95.7166933 62.3616,96.91136 C62.21824,97.2458667 62.1226667,97.5803733 62.1226667,97.9626667 L62.1226667,74.0693333 C62.1226667,74.4516267 62.21824,74.7861333 62.3616,75.12064 C62.9828267,76.3153067 64.4164267,76.7931733 65.5633067,76.2197333 L66.9013333,75.55072 L66.9013333,96.48128 L65.5633067,95.8122667 Z" id="Path" fill="#000000"></path>
            <path d="M62.3616,75.12064 C62.21824,74.7861333 62.1226667,74.4516267 62.1226667,74.0693333 C62.1226667,73.2091733 62.6005333,72.3490133 63.4606933,71.9189333 L66.9013333,70.1986133 L66.9013333,75.55072 L65.5633067,76.2197333 C64.4164267,76.7931733 62.9828267,76.3153067 62.3616,75.12064 L62.3616,75.12064 Z" id="Path" fill="#000000"></path>
            <path d="M71.68,50.176 L71.68,38.2293333 L64.512,38.2293333 C60.5457067,38.2293333 57.344,35.0276267 57.344,31.0613333 L57.344,7.168 C57.344,3.20170667 60.5457067,3.55271368e-15 64.512,3.55271368e-15 L107.52,3.55271368e-15 C111.486293,3.55271368e-15 114.688,3.20170667 114.688,7.168 L114.688,31.0613333 C114.688,35.0276267 111.486293,38.2293333 107.52,38.2293333 L90.5079467,38.2293333 L75.69408,51.9441067 C75.2162133,52.3264 74.6427733,52.5653333 74.0693333,52.5653333 C73.7348267,52.5653333 73.40032,52.5175467 73.1136,52.3741867 C72.25344,51.9918933 71.68,51.1317333 71.68,50.176 L71.68,50.176 Z M109.909333,7.168 C109.909333,5.87776 108.81024,4.77866667 107.52,4.77866667 L64.512,4.77866667 C63.22176,4.77866667 62.1226667,5.87776 62.1226667,7.168 L62.1226667,31.0613333 C62.1226667,32.39936 63.22176,33.4506667 64.512,33.4506667 L74.0693333,33.4506667 C75.40736,33.4506667 76.4586667,34.5019733 76.4586667,35.84 L76.4586667,44.72832 L87.9752533,34.0718933 C88.4053333,33.6896 88.9787733,33.4506667 89.6,33.4506667 L107.52,33.4506667 C108.81024,33.4506667 109.909333,32.39936 109.909333,31.0613333 L109.909333,7.168 Z" id="Shape" fill="#000000"></path>
            <path d="M0,66.9013333 C0,61.6448 4.3008,57.344 9.55733333,57.344 L57.344,57.344 C62.6005333,57.344 66.9013333,61.6448 66.9013333,66.9013333 L66.9013333,70.1986133 L63.4606933,71.9189333 C62.6005333,72.3490133 62.1226667,73.2091733 62.1226667,74.0693333 L62.1226667,66.9013333 C62.1226667,64.2730667 59.9722667,62.1226667 57.344,62.1226667 L9.55733333,62.1226667 C6.92906667,62.1226667 4.77866667,64.2730667 4.77866667,66.9013333 L4.77866667,105.130667 C4.77866667,107.758933 6.92906667,109.909333 9.55733333,109.909333 L57.344,109.909333 C59.9722667,109.909333 62.1226667,107.758933 62.1226667,105.130667 L62.1226667,97.9626667 C62.1226667,98.8228267 62.6005333,99.6829867 63.4606933,100.113067 L66.9013333,101.833387 L66.9013333,105.130667 C66.9013333,110.3872 62.6005333,114.688 57.344,114.688 L9.55733333,114.688 C4.3008,114.688 0,110.3872 0,105.130667 L0,66.9013333 Z" id="Path" fill="#000000"></path>
        </g>
    </g>
</svg>