<?xml version="1.0" encoding="UTF-8"?>
<svg width="115px" height="115px" viewBox="0 0 115 115" version="1.1" xmlns="http://www.w3.org/2000/svg" xmlns:xlink="http://www.w3.org/1999/xlink">
    <title>Safety</title>
    <g id="Safety" stroke="none" stroke-width="1" fill="none" fill-rule="evenodd">
        <g id="icon-features-safety" transform="translate(12.000000, 8.000000)">
            <path d="M46.159401,0.133016173 C60.2384347,16.1860263 82.5263888,15.1733931 90.2684771,14.2803153 C90.3348941,14.2726273 90.4054109,14.2926431 90.4559753,14.3306516 C90.468548,14.3400661 90.476201,14.3479429 90.4803008,14.3528524 C93.4824578,44.7992322 82.684095,62.1237053 78.3888568,69.0143261 C78.1483344,69.4003455 77.9280377,69.7539943 77.73152,70.0750027 C73.6396326,76.7692419 67.0058606,83.3750015 60.6063247,88.8124523 C54.3084641,94.1638513 48.4041857,98.2449742 45.7671854,100 C43.0085574,98.2735682 36.738029,94.1948731 30.0998839,88.8326839 C23.3496772,83.3798571 16.4249824,76.7619585 12.3375775,70.0750027 C12.1502433,69.768561 11.9409615,69.4327161 11.7130665,69.0666586 C7.44723763,62.2186591 -3.3498952,44.885284 1.02329413,14.3289791 L1.02597268,14.3258769 C1.03034581,14.3212641 1.03717884,14.3149519 1.04696372,14.3078843 C1.09260832,14.2750012 1.15686607,14.2568197 1.22003053,14.2642649 C5.15593372,14.7277039 12.6381211,15.2020141 20.8938888,13.5894729 C29.1621198,11.9744499 38.3651084,8.23124906 45.4673524,0.133043149 C45.5236565,0.0685447367 45.6368114,0 45.8133767,0 C45.989942,0 46.1028235,0.0685447367 46.159401,0.133016173 Z" id="Path" stroke="#0C172F" stroke-width="4"></path>
            <path d="M22.697301,45.0022647 C21.6418027,43.9476936 19.9088256,43.9263622 18.8263923,44.9545357 C17.7439591,45.9824425 17.7220334,47.6705563 18.7773949,48.7251274 L22.697301,45.0022647 Z M39.89842,66.0072951 L37.9382479,67.8687264 L40.0716903,70 L42.0127014,67.7007416 L39.89842,66.0072951 Z M74.3770282,29.3599485 C75.3369952,28.2224515 75.1689257,26.5420704 74.0011986,25.6069551 C72.8334714,24.6715732 71.1084324,24.8355584 70.1484654,25.9730553 L74.3770282,29.3599485 Z M18.7773949,48.7251274 L37.9382479,67.8687264 L41.8583183,64.1458637 L22.697301,45.0022647 L18.7773949,48.7251274 Z M42.0127014,67.7007416 L74.3770282,29.3599485 L70.1484654,25.9730553 L37.7838649,64.3135818 L42.0127014,67.7007416 Z" id="Shape" fill="#0A9BCC" fill-rule="nonzero"></path>
        </g>
    </g>
</svg>